<mxfile host="app.diagrams.net" modified="2020-11-30T17:30:56.971Z" agent="5.0 (Windows NT 10.0; Win64; x64) AppleWebKit/537.36 (KHTML, like Gecko) Chrome/87.0.4280.66 Safari/537.36" etag="jf0jkxpnj-RfDnfklaUc" version="13.10.4" type="github">
  <diagram id="EBVEQXoF0AvwcjCBJaCW" name="第 1 页">
    <mxGraphModel dx="782" dy="469" grid="1" gridSize="10" guides="1" tooltips="1" connect="1" arrows="1" fold="1" page="1" pageScale="1" pageWidth="827" pageHeight="1169" background="none" math="0" shadow="0">
      <root>
        <mxCell id="0" />
        <mxCell id="1" parent="0" />
        <mxCell id="LH8p48pWrARDBIKsLL2u-25" value="原型对象" style="shape=table;html=1;whiteSpace=wrap;startSize=30;container=1;collapsible=0;childLayout=tableLayout;fixedRows=1;rowLines=0;fontStyle=1;align=center;" parent="1" vertex="1">
          <mxGeometry x="430" y="60" width="180" height="60" as="geometry" />
        </mxCell>
        <mxCell id="LH8p48pWrARDBIKsLL2u-26" value="" style="shape=partialRectangle;html=1;whiteSpace=wrap;collapsible=0;dropTarget=0;pointerEvents=0;fillColor=none;top=0;left=0;bottom=1;right=0;points=[[0,0.5],[1,0.5]];portConstraint=eastwest;" parent="LH8p48pWrARDBIKsLL2u-25" vertex="1">
          <mxGeometry y="30" width="180" height="30" as="geometry" />
        </mxCell>
        <mxCell id="LH8p48pWrARDBIKsLL2u-27" value="constructor" style="shape=partialRectangle;html=1;whiteSpace=wrap;connectable=0;fillColor=none;top=0;left=0;bottom=0;right=0;overflow=hidden;" parent="LH8p48pWrARDBIKsLL2u-26" vertex="1">
          <mxGeometry width="90" height="30" as="geometry" />
        </mxCell>
        <mxCell id="LH8p48pWrARDBIKsLL2u-28" value="1012" style="shape=partialRectangle;html=1;whiteSpace=wrap;connectable=0;fillColor=none;top=0;left=0;bottom=0;right=0;align=center;spacingLeft=6;overflow=hidden;" parent="LH8p48pWrARDBIKsLL2u-26" vertex="1">
          <mxGeometry x="90" width="90" height="30" as="geometry" />
        </mxCell>
        <mxCell id="LH8p48pWrARDBIKsLL2u-35" value="构造函数" style="shape=table;html=1;whiteSpace=wrap;startSize=30;container=1;collapsible=0;childLayout=tableLayout;fixedRows=1;rowLines=0;fontStyle=1;align=center;" parent="1" vertex="1">
          <mxGeometry x="110" y="60" width="180" height="60" as="geometry" />
        </mxCell>
        <mxCell id="LH8p48pWrARDBIKsLL2u-36" value="" style="shape=partialRectangle;html=1;whiteSpace=wrap;collapsible=0;dropTarget=0;pointerEvents=0;fillColor=none;top=0;left=0;bottom=1;right=0;points=[[0,0.5],[1,0.5]];portConstraint=eastwest;" parent="LH8p48pWrARDBIKsLL2u-35" vertex="1">
          <mxGeometry y="30" width="180" height="30" as="geometry" />
        </mxCell>
        <mxCell id="LH8p48pWrARDBIKsLL2u-37" value="prototype" style="shape=partialRectangle;html=1;whiteSpace=wrap;connectable=0;fillColor=none;top=0;left=0;bottom=0;right=0;overflow=hidden;" parent="LH8p48pWrARDBIKsLL2u-36" vertex="1">
          <mxGeometry width="90" height="30" as="geometry" />
        </mxCell>
        <mxCell id="LH8p48pWrARDBIKsLL2u-38" value="1011" style="shape=partialRectangle;html=1;whiteSpace=wrap;connectable=0;fillColor=none;top=0;left=0;bottom=0;right=0;align=center;spacingLeft=6;overflow=hidden;" parent="LH8p48pWrARDBIKsLL2u-36" vertex="1">
          <mxGeometry x="90" width="90" height="30" as="geometry" />
        </mxCell>
        <mxCell id="LH8p48pWrARDBIKsLL2u-39" value="实例" style="shape=table;html=1;whiteSpace=wrap;startSize=30;container=1;collapsible=0;childLayout=tableLayout;fixedRows=1;rowLines=0;fontStyle=1;align=center;" parent="1" vertex="1">
          <mxGeometry x="110" y="200" width="180" height="60" as="geometry" />
        </mxCell>
        <mxCell id="LH8p48pWrARDBIKsLL2u-40" value="" style="shape=partialRectangle;html=1;whiteSpace=wrap;collapsible=0;dropTarget=0;pointerEvents=0;fillColor=none;top=0;left=0;bottom=1;right=0;points=[[0,0.5],[1,0.5]];portConstraint=eastwest;" parent="LH8p48pWrARDBIKsLL2u-39" vertex="1">
          <mxGeometry y="30" width="180" height="30" as="geometry" />
        </mxCell>
        <mxCell id="LH8p48pWrARDBIKsLL2u-41" value="__proto__" style="shape=partialRectangle;html=1;whiteSpace=wrap;connectable=0;fillColor=none;top=0;left=0;bottom=0;right=0;overflow=hidden;" parent="LH8p48pWrARDBIKsLL2u-40" vertex="1">
          <mxGeometry width="90" height="30" as="geometry" />
        </mxCell>
        <mxCell id="LH8p48pWrARDBIKsLL2u-42" value="1011" style="shape=partialRectangle;html=1;whiteSpace=wrap;connectable=0;fillColor=none;top=0;left=0;bottom=0;right=0;align=center;spacingLeft=6;overflow=hidden;" parent="LH8p48pWrARDBIKsLL2u-40" vertex="1">
          <mxGeometry x="90" width="90" height="30" as="geometry" />
        </mxCell>
        <mxCell id="LH8p48pWrARDBIKsLL2u-43" value="内存地址：1011" style="text;html=1;align=center;verticalAlign=middle;resizable=0;points=[];autosize=1;" parent="1" vertex="1">
          <mxGeometry x="470" y="30" width="100" height="20" as="geometry" />
        </mxCell>
        <mxCell id="LH8p48pWrARDBIKsLL2u-44" value="内存地址：1012" style="text;html=1;align=center;verticalAlign=middle;resizable=0;points=[];autosize=1;" parent="1" vertex="1">
          <mxGeometry x="150" y="30" width="100" height="20" as="geometry" />
        </mxCell>
        <mxCell id="LH8p48pWrARDBIKsLL2u-45" value="内存地址：1013" style="text;html=1;align=center;verticalAlign=middle;resizable=0;points=[];autosize=1;" parent="1" vertex="1">
          <mxGeometry x="150" y="170" width="100" height="20" as="geometry" />
        </mxCell>
        <mxCell id="LH8p48pWrARDBIKsLL2u-46" style="edgeStyle=orthogonalEdgeStyle;rounded=0;orthogonalLoop=1;jettySize=auto;html=1;entryX=0;entryY=0.25;entryDx=0;entryDy=0;" parent="1" source="LH8p48pWrARDBIKsLL2u-36" target="LH8p48pWrARDBIKsLL2u-25" edge="1">
          <mxGeometry relative="1" as="geometry">
            <mxPoint x="320" y="105" as="targetPoint" />
          </mxGeometry>
        </mxCell>
        <mxCell id="LH8p48pWrARDBIKsLL2u-48" style="edgeStyle=orthogonalEdgeStyle;rounded=0;orthogonalLoop=1;jettySize=auto;html=1;entryX=0;entryY=0.25;entryDx=0;entryDy=0;" parent="1" source="LH8p48pWrARDBIKsLL2u-40" target="LH8p48pWrARDBIKsLL2u-25" edge="1">
          <mxGeometry relative="1" as="geometry">
            <mxPoint x="420" y="70" as="targetPoint" />
            <Array as="points">
              <mxPoint x="360" y="245" />
              <mxPoint x="360" y="75" />
            </Array>
          </mxGeometry>
        </mxCell>
        <mxCell id="LH8p48pWrARDBIKsLL2u-49" style="edgeStyle=orthogonalEdgeStyle;rounded=0;orthogonalLoop=1;jettySize=auto;html=1;entryX=0.875;entryY=-0.058;entryDx=0;entryDy=0;entryPerimeter=0;" parent="1" source="LH8p48pWrARDBIKsLL2u-26" target="LH8p48pWrARDBIKsLL2u-35" edge="1">
          <mxGeometry relative="1" as="geometry">
            <mxPoint x="320" y="20" as="targetPoint" />
            <Array as="points">
              <mxPoint x="630" y="105" />
              <mxPoint x="630" y="20" />
              <mxPoint x="268" y="20" />
            </Array>
          </mxGeometry>
        </mxCell>
        <mxCell id="z74iTlgXJ9nYKBvrNDNK-3" value="" style="edgeStyle=orthogonalEdgeStyle;rounded=0;orthogonalLoop=1;jettySize=auto;html=1;" edge="1" parent="1" source="z74iTlgXJ9nYKBvrNDNK-1" target="z74iTlgXJ9nYKBvrNDNK-2">
          <mxGeometry relative="1" as="geometry" />
        </mxCell>
        <mxCell id="z74iTlgXJ9nYKBvrNDNK-1" value="&lt;font color=&quot;#ff0000&quot;&gt;&lt;b&gt;实例自身&lt;/b&gt;&lt;/font&gt;搜索" style="rounded=1;whiteSpace=wrap;html=1;" vertex="1" parent="1">
          <mxGeometry x="65" y="770" width="120" height="60" as="geometry" />
        </mxCell>
        <mxCell id="z74iTlgXJ9nYKBvrNDNK-6" value="" style="edgeStyle=orthogonalEdgeStyle;rounded=0;orthogonalLoop=1;jettySize=auto;html=1;" edge="1" parent="1" source="z74iTlgXJ9nYKBvrNDNK-2" target="z74iTlgXJ9nYKBvrNDNK-4">
          <mxGeometry relative="1" as="geometry" />
        </mxCell>
        <mxCell id="z74iTlgXJ9nYKBvrNDNK-7" style="edgeStyle=orthogonalEdgeStyle;rounded=0;orthogonalLoop=1;jettySize=auto;html=1;entryX=0.5;entryY=0;entryDx=0;entryDy=0;" edge="1" parent="1" source="z74iTlgXJ9nYKBvrNDNK-2" target="z74iTlgXJ9nYKBvrNDNK-5">
          <mxGeometry relative="1" as="geometry" />
        </mxCell>
        <mxCell id="z74iTlgXJ9nYKBvrNDNK-2" value="是否找到指定属性" style="rhombus;whiteSpace=wrap;html=1;" vertex="1" parent="1">
          <mxGeometry x="60" y="900" width="130" height="70" as="geometry" />
        </mxCell>
        <mxCell id="z74iTlgXJ9nYKBvrNDNK-4" value="&lt;font color=&quot;#00d2d3&quot;&gt;&lt;b&gt;返回&lt;/b&gt;&lt;/font&gt;属性的值" style="rounded=1;whiteSpace=wrap;html=1;" vertex="1" parent="1">
          <mxGeometry x="65" y="1050" width="120" height="60" as="geometry" />
        </mxCell>
        <mxCell id="z74iTlgXJ9nYKBvrNDNK-8" style="edgeStyle=orthogonalEdgeStyle;rounded=0;orthogonalLoop=1;jettySize=auto;html=1;" edge="1" parent="1" source="z74iTlgXJ9nYKBvrNDNK-5">
          <mxGeometry relative="1" as="geometry">
            <mxPoint x="125" y="870" as="targetPoint" />
            <Array as="points">
              <mxPoint x="385" y="990" />
              <mxPoint x="385" y="870" />
            </Array>
          </mxGeometry>
        </mxCell>
        <mxCell id="z74iTlgXJ9nYKBvrNDNK-5" value="沿着&lt;font color=&quot;#1dd1a1&quot;&gt;&lt;b&gt;原型对象&lt;/b&gt;&lt;/font&gt;搜索" style="rounded=1;whiteSpace=wrap;html=1;" vertex="1" parent="1">
          <mxGeometry x="225" y="960" width="120" height="60" as="geometry" />
        </mxCell>
        <mxCell id="z74iTlgXJ9nYKBvrNDNK-9" value="Yes" style="text;html=1;align=center;verticalAlign=middle;resizable=0;points=[];autosize=1;" vertex="1" parent="1">
          <mxGeometry x="85" y="990" width="30" height="20" as="geometry" />
        </mxCell>
        <mxCell id="z74iTlgXJ9nYKBvrNDNK-10" value="No" style="text;html=1;align=center;verticalAlign=middle;resizable=0;points=[];autosize=1;" vertex="1" parent="1">
          <mxGeometry x="209" y="910" width="30" height="20" as="geometry" />
        </mxCell>
        <mxCell id="z74iTlgXJ9nYKBvrNDNK-11" value="访问属性过程" style="text;html=1;align=center;verticalAlign=middle;resizable=0;points=[];autosize=1;" vertex="1" parent="1">
          <mxGeometry x="80" y="740" width="90" height="20" as="geometry" />
        </mxCell>
      </root>
    </mxGraphModel>
  </diagram>
</mxfile>
